<?xml version="1.0" encoding="UTF-8"?>
<svg width="512" height="512" viewBox="0 0 512 512" fill="none" xmlns="http://www.w3.org/2000/svg">
  <!-- Main plate circle -->
  <circle cx="256" cy="256" r="240" fill="#ffffff" stroke="#3182ce" stroke-width="32"/>
  
  <!-- Fork on the left -->
  <path d="M160 120V392" stroke="#3182ce" stroke-width="24" stroke-linecap="round"/>
  <path d="M160 120C160 120 160 180 160 200C160 220 200 240 160 260" stroke="#3182ce" stroke-width="24" stroke-linecap="round"/>
  
  <!-- Knife on the right -->
  <path d="M352 120V392" stroke="#3182ce" stroke-width="24" stroke-linecap="round"/>
  <path d="M352 120C352 120 310 180 310 220C310 260 352 280 352 280" stroke="#3182ce" stroke-width="24" stroke-linecap="round"/>
  
  <!-- Steam lines -->
  <path d="M220 160C220 160 240 130 256 130C272 130 292 160 292 160" stroke="#3182ce" stroke-width="16" stroke-linecap="round"/>
  <path d="M200 140C200 140 256 90 312 140" stroke="#3182ce" stroke-width="16" stroke-linecap="round"/>
</svg>